<?xml version="1.0" encoding="UTF-8" standalone="no"?>
<svg
   xmlns:dc="http://purl.org/dc/elements/1.1/"
   xmlns:cc="http://creativecommons.org/ns#"
   xmlns:rdf="http://www.w3.org/1999/02/22-rdf-syntax-ns#"
   xmlns:svg="http://www.w3.org/2000/svg"
   xmlns="http://www.w3.org/2000/svg"
   xmlns:sodipodi="http://sodipodi.sourceforge.net/DTD/sodipodi-0.dtd"
   xmlns:inkscape="http://www.inkscape.org/namespaces/inkscape"
   version="1.1"
   x="0px"
   y="0px"
   viewBox="0 0 1000 1000"
   enable-background="new 0 0 1000 1000"
   xml:space="preserve"
   id="svg8"
   sodipodi:docname="wind_arrow.svg"
   inkscape:version="0.92.2 5c3e80d, 2017-08-06"><defs
     id="defs12" /><sodipodi:namedview
     pagecolor="#ffffff"
     bordercolor="#666666"
     borderopacity="1"
     objecttolerance="10"
     gridtolerance="10"
     guidetolerance="10"
     inkscape:pageopacity="0"
     inkscape:pageshadow="2"
     inkscape:window-width="1442"
     inkscape:window-height="736"
     id="namedview10"
     showgrid="false"
     inkscape:zoom="0.236"
     inkscape:cx="-262.71186"
     inkscape:cy="500"
     inkscape:window-x="0"
     inkscape:window-y="0"
     inkscape:window-maximized="0"
     inkscape:current-layer="svg8"
     inkscape:pagecheckerboard="true" /><metadata
     id="metadata2"><rdf:RDF><cc:Work
     rdf:about=""><dc:format>image/svg+xml</dc:format><dc:type
       rdf:resource="http://purl.org/dc/dcmitype/StillImage" /><dc:title></dc:title></cc:Work></rdf:RDF></metadata><g
     id="g6"
     style="fill:#ffffff"
     transform="matrix(1,0,0,-1,0,1000)"><path
       d="m 817.2,990 c -8.3,0 -16.6,-3.3 -26.5,-9.9 L 497.2,769.5 c -5,-3.3 -18.2,-3.3 -23.2,0 L 210.3,976.7 c -19.9,16.6 -41.5,14.9 -51.4,0 -6.6,-9.9 -8.3,-21.6 -3.3,-38.1 L 449.1,39.8 C 459,13.3 477.3,10 483.9,10 c 6.6,0 24.9,3.3 34.8,29.8 l 325,898.7 c 5,14.9 5,28.2 -1.7,38.1 -4.9,8.4 -14.8,13.4 -24.8,13.4 z M 485.6,716.4 c 14.9,0 28.2,5 39.8,11.6 L 780.8,910.4 485.6,92.9 218.6,907.1 442.5,729.7 c 11.6,-8.3 26.5,-13.3 43.1,-13.3 z"
       id="path4"
       style="fill:#ffffff"
       inkscape:connector-curvature="0" /></g></svg>
